<?xml version="1.0" standalone="no"?>
<!DOCTYPE svg PUBLIC "-//W3C//DTD SVG 20010904//EN"
 "http://www.w3.org/TR/2001/REC-SVG-20010904/DTD/svg10.dtd">
<svg version="1.0" xmlns="http://www.w3.org/2000/svg"
 width="150.000000pt" height="150.000000pt" viewBox="0 0 150.000000 150.000000"
 preserveAspectRatio="xMidYMid meet">

<g transform="translate(0.000000,150.000000) scale(0.100000,-0.100000)"
fill="#000000" stroke="none">
<path d="M674 1480 c-355 -48 -623 -335 -641 -685 -12 -219 61 -409 212 -561
138 -138 289 -203 487 -212 146 -6 235 13 356 73 194 97 331 265 388 475 27
96 25 271 -4 373 -100 353 -444 584 -798 537z m276 -65 c219 -66 399 -242 472
-460 20 -60 23 -89 23 -210 -1 -125 -4 -148 -27 -213 -39 -109 -84 -178 -174
-268 -66 -67 -97 -90 -175 -127 -435 -213 -925 53 -989 537 -27 197 46 409
189 555 97 100 212 163 356 197 76 17 249 11 325 -11z"/>
<path d="M777 1106 c-5 -21 -6 -41 -3 -44 12 -11 17 7 14 44 l-3 39 -8 -39z"/>
<path d="M675 1046 c-18 -13 -18 -14 3 -25 11 -6 29 -11 38 -11 16 0 16 1 -2
15 -16 13 -17 16 -4 25 13 8 13 10 -1 10 -8 0 -24 -6 -34 -14z"/>
<path d="M859 1046 c10 -11 8 -17 -6 -25 -16 -9 -16 -10 -1 -11 43 0 66 31 32
44 -27 10 -37 7 -25 -8z"/>
<path d="M499 929 c-25 -47 -2 -158 34 -159 24 0 37 123 17 161 -14 25 -37 24
-51 -2z"/>
<path d="M1015 928 c-13 -60 -9 -118 9 -143 12 -16 16 -17 29 -6 39 32 28 171
-14 171 -11 0 -21 -9 -24 -22z"/>
<path d="M618 840 c-71 -55 -7 -172 77 -140 38 14 54 38 55 78 0 68 -78 105
-132 62z m86 -21 c25 -20 33 -53 18 -75 -15 -23 -50 -34 -75 -25 -42 16 -49
62 -15 98 26 28 38 29 72 2z"/>
<path d="M846 839 c-19 -15 -26 -30 -26 -54 0 -47 8 -64 42 -81 24 -12 36 -13
64 -4 39 13 54 35 54 80 0 67 -79 102 -134 59z m88 -20 c39 -31 34 -74 -11
-98 -61 -32 -113 51 -61 99 27 25 39 25 72 -1z"/>
<path d="M773 652 c-72 -3 -73 -3 -72 -30 0 -15 3 -22 5 -16 3 8 16 8 44 1 27
-8 49 -8 74 0 30 9 36 8 39 -6 3 -9 5 -2 6 15 1 38 -3 40 -96 36z"/>
<path d="M636 606 c-15 -23 -14 -25 5 -31 23 -8 39 8 39 38 0 25 -25 21 -44
-7z"/>
<path d="M890 606 c0 -30 13 -40 40 -31 18 6 19 8 4 31 -21 31 -44 31 -44 0z"/>
<path d="M800 560 c0 -5 5 -10 11 -10 5 0 7 5 4 10 -3 6 -8 10 -11 10 -2 0 -4
-4 -4 -10z"/>
<path d="M872 550 c0 -14 2 -19 5 -12 2 6 2 18 0 25 -3 6 -5 1 -5 -13z"/>
<path d="M609 529 c-14 -14 -41 -30 -60 -35 -20 -6 -35 -17 -37 -28 -3 -15 -1
-16 16 -7 29 15 52 14 73 -5 16 -14 18 -13 29 20 6 20 10 46 8 58 l-3 23 -26
-26z"/>
<path d="M930 527 c0 -13 5 -38 11 -55 11 -31 11 -31 36 -15 20 13 31 14 54 6
23 -9 29 -9 29 3 0 16 -31 34 -58 34 -11 0 -22 6 -25 14 -3 8 -15 20 -26 26
-19 9 -21 8 -21 -13z"/>
<path d="M681 494 c0 -11 3 -14 6 -6 3 7 2 16 -1 19 -3 4 -6 -2 -5 -13z"/>
<path d="M882 480 c0 -14 2 -19 5 -12 2 6 2 18 0 25 -3 6 -5 1 -5 -13z"/>
<path d="M558 433 c0 -5 -2 -20 -2 -35 -2 -26 -1 -26 27 -11 19 9 27 20 23 29
-3 9 -6 18 -6 20 0 7 -40 4 -42 -3z"/>
<path d="M967 427 c-6 -17 1 -28 28 -43 19 -10 21 -9 20 20 0 24 -5 32 -21 34
-12 2 -24 -3 -27 -11z"/>
<path d="M718 395 c14 -22 56 -65 64 -65 9 0 68 60 68 70 0 3 -31 5 -69 5 -43
0 -67 -4 -63 -10z"/>
</g>
</svg>
